<svg width="64" height="64" viewBox="0 0 64 64" fill="none" xmlns="http://www.w3.org/2000/svg">
<circle cx="32" cy="32" r="32" fill="#b4b4b4"/>
<path d="M35.2159 28.0909C35.1307 27.3712 34.785 26.8125 34.179 26.4148C33.5729 26.017 32.8295 25.8182 31.9489 25.8182C31.3049 25.8182 30.7415 25.9223 30.2585 26.1307C29.7803 26.339 29.4063 26.6255 29.1364 26.9901C28.8712 27.3546 28.7386 27.7689 28.7386 28.233C28.7386 28.6212 28.831 28.955 29.0156 29.2344C29.205 29.509 29.4465 29.7386 29.7401 29.9233C30.0336 30.1032 30.3414 30.2524 30.6634 30.3707C30.9853 30.4844 31.2812 30.5767 31.5511 30.6477L33.0284 31.0455C33.4072 31.1449 33.8286 31.2822 34.2926 31.4574C34.7614 31.6326 35.2088 31.8717 35.6349 32.1747C36.0658 32.473 36.4209 32.8565 36.7003 33.3253C36.9796 33.794 37.1193 34.3693 37.1193 35.0511C37.1193 35.8371 36.9134 36.5473 36.5014 37.1818C36.0942 37.8163 35.4976 38.3205 34.7116 38.6946C33.9304 39.0687 32.9811 39.2557 31.8636 39.2557C30.822 39.2557 29.92 39.0876 29.1577 38.7514C28.4001 38.4152 27.8035 37.9465 27.3679 37.3452C26.937 36.7438 26.6932 36.0455 26.6364 35.25H28.4545C28.5019 35.7992 28.6866 36.2538 29.0085 36.6136C29.3352 36.9687 29.7472 37.2339 30.2443 37.4091C30.7462 37.5795 31.286 37.6648 31.8636 37.6648C32.536 37.6648 33.1397 37.5559 33.6747 37.3381C34.2098 37.1155 34.6335 36.8078 34.946 36.4148C35.2585 36.017 35.4148 35.553 35.4148 35.0227C35.4148 34.5398 35.2798 34.1468 35.0099 33.8438C34.7401 33.5407 34.3849 33.2945 33.9446 33.1051C33.5043 32.9157 33.0284 32.75 32.517 32.608L30.7273 32.0966C29.5909 31.7699 28.6913 31.3035 28.0284 30.6974C27.3655 30.0914 27.0341 29.2983 27.0341 28.3182C27.0341 27.5038 27.2543 26.7936 27.6946 26.1875C28.1397 25.5767 28.7363 25.1032 29.4844 24.767C30.2372 24.4261 31.0777 24.2557 32.0057 24.2557C32.9432 24.2557 33.7765 24.4238 34.5057 24.7599C35.2348 25.0914 35.8125 25.5459 36.2386 26.1236C36.6695 26.7012 36.8968 27.357 36.9205 28.0909H35.2159Z" fill="#EEEEEE"/>
</svg>
